<mxfile host="Electron" agent="Mozilla/5.0 (Windows NT 10.0; Win64; x64) AppleWebKit/537.36 (KHTML, like Gecko) draw.io/24.7.5 Chrome/126.0.6478.183 Electron/31.3.0 Safari/537.36" version="24.7.5" pages="6">
  <diagram id="AZTf-Y9mpQP4SK0bnF2k" name="First">
    <mxGraphModel dx="1332" dy="576" grid="1" gridSize="10" guides="1" tooltips="1" connect="1" arrows="1" fold="1" page="1" pageScale="1" pageWidth="850" pageHeight="1100" math="0" shadow="0">
      <root>
        <mxCell id="0" />
        <mxCell id="1" parent="0" />
        <mxCell id="adW_jCPSI08z83HRZVJH-1" value="&lt;font style=&quot;font-size: 24px;&quot;&gt;Welcome to the&lt;br&gt;&lt;b&gt;&lt;i&gt;Kubernetes In Simple&lt;/i&gt; &lt;/b&gt;course&lt;/font&gt;" style="rounded=0;whiteSpace=wrap;html=1;fillColor=#d5e8d4;strokeColor=#82b366;" vertex="1" parent="1">
          <mxGeometry x="135" y="190" width="580" height="150" as="geometry" />
        </mxCell>
      </root>
    </mxGraphModel>
  </diagram>
  <diagram name="W &amp; W" id="nh2ZPwZM7Aq1E5uOQrZh">
    <mxGraphModel dx="880" dy="1642" grid="1" gridSize="10" guides="1" tooltips="1" connect="1" arrows="1" fold="1" page="1" pageScale="1" pageWidth="850" pageHeight="1100" math="0" shadow="0">
      <root>
        <mxCell id="0" />
        <mxCell id="1" parent="0" />
        <mxCell id="8xF8nhM1WyJBPQijzi30-6" value="&lt;h3 style=&quot;&quot;&gt;&lt;font style=&quot;font-size: 24px;&quot;&gt;What is Kubernetes&lt;/font&gt;&lt;/h3&gt;" style="rounded=1;whiteSpace=wrap;html=1;fontFamily=Times New Roman;fontSize=20;fillColor=#316bde;strokeColor=#10739e;fontColor=#ffffff;" vertex="1" parent="1">
          <mxGeometry x="220" y="-402" width="220" height="102" as="geometry" />
        </mxCell>
        <mxCell id="8xF8nhM1WyJBPQijzi30-7" style="edgeStyle=orthogonalEdgeStyle;rounded=0;orthogonalLoop=1;jettySize=auto;html=1;" edge="1" parent="1" source="8xF8nhM1WyJBPQijzi30-8" target="8xF8nhM1WyJBPQijzi30-6">
          <mxGeometry relative="1" as="geometry" />
        </mxCell>
        <mxCell id="8xF8nhM1WyJBPQijzi30-8" value="&lt;h1 style=&quot;font-size: 20px;&quot;&gt;Two Big Questions&lt;/h1&gt;" style="text;html=1;align=center;verticalAlign=middle;resizable=0;points=[];autosize=1;strokeColor=none;fillColor=none;fontSize=20;" vertex="1" parent="1">
          <mxGeometry x="380" y="-560" width="198" height="63" as="geometry" />
        </mxCell>
        <mxCell id="8xF8nhM1WyJBPQijzi30-9" value="&lt;h3 style=&quot;&quot;&gt;&lt;font style=&quot;font-size: 24px;&quot;&gt;What use Kubernetes&lt;/font&gt;&lt;/h3&gt;" style="rounded=1;whiteSpace=wrap;html=1;fontFamily=Times New Roman;fontSize=20;fillColor=#316bde;strokeColor=#10739e;fontColor=#ffffff;" vertex="1" parent="1">
          <mxGeometry x="520" y="-402" width="220" height="102" as="geometry" />
        </mxCell>
        <mxCell id="8xF8nhM1WyJBPQijzi30-10" style="edgeStyle=orthogonalEdgeStyle;rounded=0;orthogonalLoop=1;jettySize=auto;html=1;entryX=0.532;entryY=-0.02;entryDx=0;entryDy=0;entryPerimeter=0;" edge="1" parent="1" source="8xF8nhM1WyJBPQijzi30-8" target="8xF8nhM1WyJBPQijzi30-9">
          <mxGeometry relative="1" as="geometry" />
        </mxCell>
      </root>
    </mxGraphModel>
  </diagram>
  <diagram id="Du224B0qa6RLaJq12-Db" name="Example">
    <mxGraphModel dx="880" dy="542" grid="1" gridSize="10" guides="1" tooltips="1" connect="1" arrows="1" fold="1" page="1" pageScale="1" pageWidth="850" pageHeight="1100" math="0" shadow="0">
      <root>
        <mxCell id="0" />
        <mxCell id="1" parent="0" />
        <mxCell id="lC9MFAztDrsEEdtxNGY7-1" value="" style="rounded=0;whiteSpace=wrap;html=1;fillColor=#dae8fc;strokeColor=#6c8ebf;" parent="1" vertex="1">
          <mxGeometry x="165" y="140" width="520" height="330" as="geometry" />
        </mxCell>
        <mxCell id="lC9MFAztDrsEEdtxNGY7-2" value="&lt;font style=&quot;font-size: 20px;&quot;&gt;&lt;b&gt;Frontend Container&lt;/b&gt;&lt;/font&gt;" style="rounded=0;whiteSpace=wrap;html=1;" parent="1" vertex="1">
          <mxGeometry x="235" y="180" width="140" height="100" as="geometry" />
        </mxCell>
        <mxCell id="lC9MFAztDrsEEdtxNGY7-5" value="&lt;font style=&quot;font-size: 20px;&quot;&gt;&lt;b&gt;Backend Container&lt;/b&gt;&lt;/font&gt;" style="rounded=0;whiteSpace=wrap;html=1;" parent="1" vertex="1">
          <mxGeometry x="235" y="330" width="140" height="100" as="geometry" />
        </mxCell>
        <mxCell id="lC9MFAztDrsEEdtxNGY7-6" value="&lt;font style=&quot;font-size: 20px;&quot;&gt;&lt;b&gt;Db Container&lt;/b&gt;&lt;/font&gt;" style="rounded=0;whiteSpace=wrap;html=1;" parent="1" vertex="1">
          <mxGeometry x="460" y="255" width="140" height="100" as="geometry" />
        </mxCell>
        <mxCell id="lC9MFAztDrsEEdtxNGY7-7" value="&lt;font style=&quot;font-size: 22px;&quot;&gt;&lt;b&gt;Node | Physical or VM&lt;/b&gt;&lt;/font&gt;" style="text;html=1;align=center;verticalAlign=middle;whiteSpace=wrap;rounded=0;" parent="1" vertex="1">
          <mxGeometry x="150" y="100" width="270" height="50" as="geometry" />
        </mxCell>
      </root>
    </mxGraphModel>
  </diagram>
  <diagram name="Several Nodes" id="PGLw7SwLY_B7iwlzMfMn">
    <mxGraphModel dx="1332" dy="1676" grid="1" gridSize="10" guides="1" tooltips="1" connect="1" arrows="1" fold="1" page="1" pageScale="1" pageWidth="850" pageHeight="1100" math="0" shadow="0">
      <root>
        <mxCell id="NXhbYh01DH-olCYtL4ha-0" />
        <mxCell id="NXhbYh01DH-olCYtL4ha-1" parent="NXhbYh01DH-olCYtL4ha-0" />
        <mxCell id="NXhbYh01DH-olCYtL4ha-2" value="" style="rounded=0;whiteSpace=wrap;html=1;fillColor=#dae8fc;strokeColor=#6c8ebf;" parent="NXhbYh01DH-olCYtL4ha-1" vertex="1">
          <mxGeometry x="340" y="140" width="220" height="390" as="geometry" />
        </mxCell>
        <mxCell id="NXhbYh01DH-olCYtL4ha-3" value="&lt;font style=&quot;font-size: 20px;&quot;&gt;&lt;b&gt;Frontend Container&lt;/b&gt;&lt;/font&gt;" style="rounded=0;whiteSpace=wrap;html=1;" parent="NXhbYh01DH-olCYtL4ha-1" vertex="1">
          <mxGeometry x="375" y="150" width="140" height="100" as="geometry" />
        </mxCell>
        <mxCell id="NXhbYh01DH-olCYtL4ha-4" value="&lt;font style=&quot;font-size: 20px;&quot;&gt;&lt;b&gt;Backend Container&lt;/b&gt;&lt;/font&gt;" style="rounded=0;whiteSpace=wrap;html=1;" parent="NXhbYh01DH-olCYtL4ha-1" vertex="1">
          <mxGeometry x="375" y="280" width="140" height="100" as="geometry" />
        </mxCell>
        <mxCell id="NXhbYh01DH-olCYtL4ha-5" value="&lt;font style=&quot;font-size: 20px;&quot;&gt;&lt;b&gt;Db Container&lt;/b&gt;&lt;/font&gt;" style="rounded=0;whiteSpace=wrap;html=1;" parent="NXhbYh01DH-olCYtL4ha-1" vertex="1">
          <mxGeometry x="375" y="410" width="140" height="100" as="geometry" />
        </mxCell>
        <mxCell id="ah7WD0wik-pZ9GtKc1aO-0" value="&lt;font style=&quot;font-size: 20px;&quot;&gt;&lt;b&gt;Scaling Strategy&lt;/b&gt;&lt;/font&gt;" style="rounded=0;whiteSpace=wrap;html=1;fillColor=#ffe6cc;strokeColor=#d79b00;" parent="NXhbYh01DH-olCYtL4ha-1" vertex="1">
          <mxGeometry x="325" y="-10" width="200" height="60" as="geometry" />
        </mxCell>
        <mxCell id="m7WDlpYlxQMdSuSzuvTd-0" value="" style="rounded=0;whiteSpace=wrap;html=1;fillColor=#dae8fc;strokeColor=#6c8ebf;" parent="NXhbYh01DH-olCYtL4ha-1" vertex="1">
          <mxGeometry x="80" y="140" width="220" height="390" as="geometry" />
        </mxCell>
        <mxCell id="m7WDlpYlxQMdSuSzuvTd-1" value="&lt;font style=&quot;font-size: 20px;&quot;&gt;&lt;b&gt;Frontend Container&lt;/b&gt;&lt;/font&gt;" style="rounded=0;whiteSpace=wrap;html=1;" parent="NXhbYh01DH-olCYtL4ha-1" vertex="1">
          <mxGeometry x="115" y="150" width="140" height="100" as="geometry" />
        </mxCell>
        <mxCell id="m7WDlpYlxQMdSuSzuvTd-2" value="&lt;font style=&quot;font-size: 20px;&quot;&gt;&lt;b&gt;Backend Container&lt;/b&gt;&lt;/font&gt;" style="rounded=0;whiteSpace=wrap;html=1;" parent="NXhbYh01DH-olCYtL4ha-1" vertex="1">
          <mxGeometry x="115" y="280" width="140" height="100" as="geometry" />
        </mxCell>
        <mxCell id="m7WDlpYlxQMdSuSzuvTd-3" value="&lt;font style=&quot;font-size: 20px;&quot;&gt;&lt;b&gt;Db Container&lt;/b&gt;&lt;/font&gt;" style="rounded=0;whiteSpace=wrap;html=1;" parent="NXhbYh01DH-olCYtL4ha-1" vertex="1">
          <mxGeometry x="115" y="410" width="140" height="100" as="geometry" />
        </mxCell>
        <mxCell id="m7WDlpYlxQMdSuSzuvTd-14" value="" style="rounded=0;whiteSpace=wrap;html=1;fillColor=#dae8fc;strokeColor=#6c8ebf;" parent="NXhbYh01DH-olCYtL4ha-1" vertex="1">
          <mxGeometry x="600" y="135" width="220" height="390" as="geometry" />
        </mxCell>
        <mxCell id="m7WDlpYlxQMdSuSzuvTd-15" value="&lt;font style=&quot;font-size: 20px;&quot;&gt;&lt;b&gt;Frontend Container&lt;/b&gt;&lt;/font&gt;" style="rounded=0;whiteSpace=wrap;html=1;" parent="NXhbYh01DH-olCYtL4ha-1" vertex="1">
          <mxGeometry x="635" y="145" width="140" height="100" as="geometry" />
        </mxCell>
        <mxCell id="m7WDlpYlxQMdSuSzuvTd-16" value="&lt;font style=&quot;font-size: 20px;&quot;&gt;&lt;b&gt;Backend Container&lt;/b&gt;&lt;/font&gt;" style="rounded=0;whiteSpace=wrap;html=1;" parent="NXhbYh01DH-olCYtL4ha-1" vertex="1">
          <mxGeometry x="635" y="275" width="140" height="100" as="geometry" />
        </mxCell>
        <mxCell id="m7WDlpYlxQMdSuSzuvTd-17" value="&lt;font style=&quot;font-size: 20px;&quot;&gt;&lt;b&gt;Db Container&lt;/b&gt;&lt;/font&gt;" style="rounded=0;whiteSpace=wrap;html=1;" parent="NXhbYh01DH-olCYtL4ha-1" vertex="1">
          <mxGeometry x="635" y="405" width="140" height="100" as="geometry" />
        </mxCell>
        <mxCell id="Wj5c3e3AmnIWHrPiFJ8m-0" value="&lt;font style=&quot;font-size: 22px;&quot;&gt;&lt;b&gt;Node 1&lt;/b&gt;&lt;/font&gt;" style="text;html=1;align=center;verticalAlign=middle;whiteSpace=wrap;rounded=0;" parent="NXhbYh01DH-olCYtL4ha-1" vertex="1">
          <mxGeometry x="70" y="105" width="110" height="30" as="geometry" />
        </mxCell>
        <mxCell id="Wj5c3e3AmnIWHrPiFJ8m-1" value="&lt;font style=&quot;font-size: 22px;&quot;&gt;&lt;b&gt;Node 2&lt;/b&gt;&lt;/font&gt;&lt;span style=&quot;color: rgba(0, 0, 0, 0); font-family: monospace; font-size: 0px; text-align: start; text-wrap: nowrap;&quot;&gt;%3CmxGraphModel%3E%3Croot%3E%3CmxCell%20id%3D%220%22%2F%3E%3CmxCell%20id%3D%221%22%20parent%3D%220%22%2F%3E%3CmxCell%20id%3D%222%22%20value%3D%22%26lt%3Bfont%20style%3D%26quot%3Bfont-size%3A%2022px%3B%26quot%3B%26gt%3B%26lt%3Bb%26gt%3BNode%201%26lt%3B%2Fb%26gt%3B%26lt%3B%2Ffont%26gt%3B%22%20style%3D%22text%3Bhtml%3D1%3Balign%3Dcenter%3BverticalAlign%3Dmiddle%3BwhiteSpace%3Dwrap%3Brounded%3D0%3B%22%20vertex%3D%221%22%20parent%3D%221%22%3E%3CmxGeometry%20x%3D%2280%22%20y%3D%22105%22%20width%3D%22110%22%20height%3D%2230%22%20as%3D%22geometry%22%2F%3E%3C%2FmxCell%3E%3C%2Froot%3E%3C%2FmxGraphModel%3E&lt;/span&gt;" style="text;html=1;align=center;verticalAlign=middle;whiteSpace=wrap;rounded=0;" parent="NXhbYh01DH-olCYtL4ha-1" vertex="1">
          <mxGeometry x="330" y="105" width="110" height="30" as="geometry" />
        </mxCell>
        <mxCell id="Wj5c3e3AmnIWHrPiFJ8m-2" value="&lt;font style=&quot;font-size: 22px;&quot;&gt;&lt;b&gt;Node 3&lt;/b&gt;&lt;/font&gt;" style="text;html=1;align=center;verticalAlign=middle;whiteSpace=wrap;rounded=0;" parent="NXhbYh01DH-olCYtL4ha-1" vertex="1">
          <mxGeometry x="590" y="105" width="110" height="30" as="geometry" />
        </mxCell>
      </root>
    </mxGraphModel>
  </diagram>
  <diagram name="Entrance of K8s" id="DSO5tE017tBSY6-8UdGj">
    <mxGraphModel dx="2182" dy="576" grid="1" gridSize="10" guides="1" tooltips="1" connect="1" arrows="1" fold="1" page="1" pageScale="1" pageWidth="850" pageHeight="1100" math="0" shadow="0">
      <root>
        <mxCell id="nVkHdCleelMGkdSaaA-d-0" />
        <mxCell id="nVkHdCleelMGkdSaaA-d-1" parent="nVkHdCleelMGkdSaaA-d-0" />
        <mxCell id="nVkHdCleelMGkdSaaA-d-2" value="" style="rounded=0;whiteSpace=wrap;html=1;fillColor=#dae8fc;strokeColor=#6c8ebf;" parent="nVkHdCleelMGkdSaaA-d-1" vertex="1">
          <mxGeometry x="-120" y="120" width="500" height="130" as="geometry" />
        </mxCell>
        <mxCell id="nVkHdCleelMGkdSaaA-d-5" value="&lt;font style=&quot;font-size: 20px;&quot;&gt;&lt;b&gt;Db Container&lt;/b&gt;&lt;/font&gt;" style="rounded=0;whiteSpace=wrap;html=1;" parent="nVkHdCleelMGkdSaaA-d-1" vertex="1">
          <mxGeometry x="210" y="130" width="140" height="100" as="geometry" />
        </mxCell>
        <mxCell id="OxIw3oQnnmbYIfypx0Y3-9" style="edgeStyle=orthogonalEdgeStyle;rounded=0;orthogonalLoop=1;jettySize=auto;html=1;entryX=0;entryY=0.5;entryDx=0;entryDy=0;" parent="nVkHdCleelMGkdSaaA-d-1" source="haBUb3YjotqtYjV49diC-1" target="nVkHdCleelMGkdSaaA-d-2" edge="1">
          <mxGeometry relative="1" as="geometry" />
        </mxCell>
        <mxCell id="OxIw3oQnnmbYIfypx0Y3-10" style="edgeStyle=orthogonalEdgeStyle;rounded=0;orthogonalLoop=1;jettySize=auto;html=1;entryX=0;entryY=0.5;entryDx=0;entryDy=0;" parent="nVkHdCleelMGkdSaaA-d-1" source="haBUb3YjotqtYjV49diC-1" target="OxIw3oQnnmbYIfypx0Y3-0" edge="1">
          <mxGeometry relative="1" as="geometry" />
        </mxCell>
        <mxCell id="OxIw3oQnnmbYIfypx0Y3-11" style="edgeStyle=orthogonalEdgeStyle;rounded=0;orthogonalLoop=1;jettySize=auto;html=1;entryX=0;entryY=0.5;entryDx=0;entryDy=0;" parent="nVkHdCleelMGkdSaaA-d-1" source="haBUb3YjotqtYjV49diC-1" target="OxIw3oQnnmbYIfypx0Y3-4" edge="1">
          <mxGeometry relative="1" as="geometry" />
        </mxCell>
        <mxCell id="haBUb3YjotqtYjV49diC-1" value="&lt;font style=&quot;font-size: 20px;&quot;&gt;Kubernetes (K8s) | Specifically something known as &#39;&lt;b&gt;master&lt;/b&gt;&#39;&lt;/font&gt;" style="rounded=0;whiteSpace=wrap;html=1;fillColor=#d5e8d4;strokeColor=#82b366;" parent="nVkHdCleelMGkdSaaA-d-1" vertex="1">
          <mxGeometry x="-470" y="277.5" width="250" height="135" as="geometry" />
        </mxCell>
        <mxCell id="OxIw3oQnnmbYIfypx0Y3-0" value="" style="rounded=0;whiteSpace=wrap;html=1;fillColor=#dae8fc;strokeColor=#6c8ebf;" parent="nVkHdCleelMGkdSaaA-d-1" vertex="1">
          <mxGeometry x="-120" y="280" width="500" height="130" as="geometry" />
        </mxCell>
        <mxCell id="OxIw3oQnnmbYIfypx0Y3-1" value="&lt;font style=&quot;font-size: 20px;&quot;&gt;&lt;b&gt;Frontend Container&lt;/b&gt;&lt;/font&gt;" style="rounded=0;whiteSpace=wrap;html=1;" parent="nVkHdCleelMGkdSaaA-d-1" vertex="1">
          <mxGeometry x="-110" y="290" width="140" height="100" as="geometry" />
        </mxCell>
        <mxCell id="OxIw3oQnnmbYIfypx0Y3-2" value="&lt;font style=&quot;font-size: 20px;&quot;&gt;&lt;b&gt;Backend Container&lt;/b&gt;&lt;/font&gt;" style="rounded=0;whiteSpace=wrap;html=1;" parent="nVkHdCleelMGkdSaaA-d-1" vertex="1">
          <mxGeometry x="50" y="290" width="140" height="100" as="geometry" />
        </mxCell>
        <mxCell id="OxIw3oQnnmbYIfypx0Y3-3" value="&lt;font style=&quot;font-size: 20px;&quot;&gt;&lt;b&gt;Db Container&lt;/b&gt;&lt;/font&gt;" style="rounded=0;whiteSpace=wrap;html=1;" parent="nVkHdCleelMGkdSaaA-d-1" vertex="1">
          <mxGeometry x="210" y="290" width="140" height="100" as="geometry" />
        </mxCell>
        <mxCell id="OxIw3oQnnmbYIfypx0Y3-4" value="" style="rounded=0;whiteSpace=wrap;html=1;fillColor=#dae8fc;strokeColor=#6c8ebf;" parent="nVkHdCleelMGkdSaaA-d-1" vertex="1">
          <mxGeometry x="-120" y="440" width="500" height="130" as="geometry" />
        </mxCell>
        <mxCell id="OxIw3oQnnmbYIfypx0Y3-7" value="&lt;font style=&quot;font-size: 20px;&quot;&gt;&lt;b&gt;Db Container&lt;/b&gt;&lt;/font&gt;" style="rounded=0;whiteSpace=wrap;html=1;" parent="nVkHdCleelMGkdSaaA-d-1" vertex="1">
          <mxGeometry x="210" y="450" width="140" height="100" as="geometry" />
        </mxCell>
        <mxCell id="OxIw3oQnnmbYIfypx0Y3-8" value="&lt;font style=&quot;font-size: 20px;&quot;&gt;&lt;b&gt;Db Container&lt;/b&gt;&lt;/font&gt;" style="rounded=0;whiteSpace=wrap;html=1;" parent="nVkHdCleelMGkdSaaA-d-1" vertex="1">
          <mxGeometry x="55" y="450" width="140" height="100" as="geometry" />
        </mxCell>
        <mxCell id="OxIw3oQnnmbYIfypx0Y3-12" value="" style="shape=curlyBracket;whiteSpace=wrap;html=1;rounded=1;flipH=1;labelPosition=right;verticalLabelPosition=middle;align=left;verticalAlign=middle;rotation=-90;" parent="nVkHdCleelMGkdSaaA-d-1" vertex="1">
          <mxGeometry x="-380" y="120" width="70" height="240" as="geometry" />
        </mxCell>
        <mxCell id="f0OT_Uwh5LMhrle3T5sF-0" value="&lt;font style=&quot;font-size: 22px;&quot;&gt;Controls what each node does&lt;/font&gt;" style="text;html=1;align=center;verticalAlign=middle;whiteSpace=wrap;rounded=0;" parent="nVkHdCleelMGkdSaaA-d-1" vertex="1">
          <mxGeometry x="-430" y="165" width="170" height="30" as="geometry" />
        </mxCell>
      </root>
    </mxGraphModel>
  </diagram>
  <diagram id="jClsfHb9QJB5JyMUr4IR" name="W &amp; W Ans">
    <mxGraphModel dx="1332" dy="1676" grid="1" gridSize="10" guides="1" tooltips="1" connect="1" arrows="1" fold="1" page="1" pageScale="1" pageWidth="850" pageHeight="1100" math="0" shadow="0">
      <root>
        <mxCell id="0" />
        <mxCell id="1" parent="0" />
        <mxCell id="fTom8puysfqf3KF98Xq9-7" style="edgeStyle=orthogonalEdgeStyle;rounded=0;orthogonalLoop=1;jettySize=auto;html=1;" parent="1" source="fTom8puysfqf3KF98Xq9-1" target="fTom8puysfqf3KF98Xq9-6" edge="1">
          <mxGeometry relative="1" as="geometry" />
        </mxCell>
        <mxCell id="fTom8puysfqf3KF98Xq9-1" value="&lt;h3 style=&quot;&quot;&gt;&lt;font style=&quot;font-size: 24px;&quot;&gt;What is Kubernetes&lt;/font&gt;&lt;/h3&gt;" style="rounded=1;whiteSpace=wrap;html=1;fontFamily=Times New Roman;fontSize=20;fillColor=#316bde;strokeColor=#10739e;fontColor=#ffffff;" parent="1" vertex="1">
          <mxGeometry x="90" y="-846" width="220" height="102" as="geometry" />
        </mxCell>
        <mxCell id="fTom8puysfqf3KF98Xq9-4" value="&lt;h3 style=&quot;&quot;&gt;&lt;font style=&quot;font-size: 24px;&quot;&gt;What use Kubernetes&lt;/font&gt;&lt;/h3&gt;" style="rounded=1;whiteSpace=wrap;html=1;fontFamily=Times New Roman;fontSize=20;fillColor=#316bde;strokeColor=#10739e;fontColor=#ffffff;" parent="1" vertex="1">
          <mxGeometry x="90" y="-606" width="220" height="102" as="geometry" />
        </mxCell>
        <mxCell id="fTom8puysfqf3KF98Xq9-6" value="&lt;font style=&quot;font-size: 20px;&quot;&gt;System for running many different containers over multiple different machines&lt;/font&gt;" style="rounded=0;whiteSpace=wrap;html=1;fillColor=#d5e8d4;strokeColor=#82b366;" parent="1" vertex="1">
          <mxGeometry x="450" y="-860" width="280" height="130" as="geometry" />
        </mxCell>
        <mxCell id="fTom8puysfqf3KF98Xq9-8" value="&lt;font style=&quot;font-size: 20px;&quot;&gt;When you need to run many different containers with different images&lt;/font&gt;" style="rounded=0;whiteSpace=wrap;html=1;fillColor=#d5e8d4;strokeColor=#82b366;" parent="1" vertex="1">
          <mxGeometry x="450" y="-634" width="280" height="130" as="geometry" />
        </mxCell>
        <mxCell id="fTom8puysfqf3KF98Xq9-9" style="edgeStyle=orthogonalEdgeStyle;rounded=0;orthogonalLoop=1;jettySize=auto;html=1;entryX=-0.007;entryY=0.608;entryDx=0;entryDy=0;entryPerimeter=0;" parent="1" source="fTom8puysfqf3KF98Xq9-4" target="fTom8puysfqf3KF98Xq9-8" edge="1">
          <mxGeometry relative="1" as="geometry" />
        </mxCell>
      </root>
    </mxGraphModel>
  </diagram>
</mxfile>
